<svg width="41" height="41" viewBox="0 0 41 41" fill="none" xmlns="http://www.w3.org/2000/svg">
<g clip-path="url(#clip0_837_525)">
<path d="M12.0098 0.143372C9.82855 0.246282 8.33902 0.594372 7.03686 1.10605C5.68919 1.63126 4.54693 2.33605 3.41041 3.47667C2.27389 4.61729 1.57402 5.76037 1.0525 7.11009C0.547793 8.41512 0.205853 9.90588 0.109503 12.0883C0.0131533 14.2707 -0.00816676 14.9723 0.00249324 20.5392C0.0131532 26.1062 0.0377533 26.804 0.143533 28.991C0.247673 31.1718 0.594533 32.6609 1.10621 33.9635C1.63224 35.3111 2.33621 36.453 3.47724 37.5899C4.61827 38.7268 5.76053 39.4251 7.11353 39.9474C8.41733 40.4513 9.9085 40.7949 12.0905 40.8904C14.2725 40.9859 14.9749 41.0081 20.5402 40.9974C26.1056 40.9868 26.8062 40.9622 28.9928 40.8584C31.1793 40.7547 32.6606 40.4054 33.9636 39.8961C35.3113 39.3689 36.454 38.6661 37.5901 37.5247C38.7262 36.3833 39.4256 35.2394 39.9467 33.8888C40.4519 32.585 40.795 31.0939 40.8897 28.9135C40.9853 26.7253 41.0078 26.0267 40.9972 20.4605C40.9865 14.8944 40.9615 14.1965 40.8578 12.0104C40.754 9.82429 40.4068 8.33968 39.8955 7.03629C39.3686 5.68862 38.6655 4.54759 37.5249 3.40984C36.3843 2.27209 35.2395 1.57304 33.8894 1.05316C32.5848 0.548452 31.0944 0.204462 28.9124 0.110162C26.7304 0.0158621 26.0281 -0.00832789 20.4607 0.0023321C14.8933 0.0129921 14.1963 0.0367721 12.0098 0.143372ZM12.2492 37.2024C10.2504 37.1155 9.16517 36.7834 8.44193 36.5055C7.48417 36.1365 6.80193 35.6904 6.08115 34.9766C5.36037 34.2628 4.91757 33.578 4.54365 32.6223C4.2628 31.8991 3.92455 30.8151 3.83107 28.8163C3.72939 26.656 3.70807 26.0074 3.69618 20.5343C3.68429 15.0612 3.7052 14.4134 3.79991 12.2523C3.88519 10.2552 4.21934 9.1687 4.49691 8.44587C4.86591 7.48688 5.31035 6.80587 6.0258 6.0855C6.74125 5.36513 7.4239 4.92151 8.38043 4.54759C9.10285 4.26551 10.1869 3.93013 12.1848 3.83501C14.3468 3.73251 14.9946 3.71201 20.4668 3.70012C25.9391 3.68823 26.5885 3.70873 28.7513 3.80385C30.7484 3.89077 31.8353 4.22164 32.5573 4.50085C33.5155 4.86985 34.1973 5.31306 34.9177 6.02974C35.6381 6.74642 36.0821 7.42661 36.456 8.38519C36.7385 9.10556 37.0739 10.1892 37.1682 12.1884C37.2711 14.3503 37.2945 14.9985 37.3043 20.4704C37.3141 25.9422 37.2949 26.5921 37.2002 28.7524C37.1128 30.7511 36.7815 31.8368 36.5032 32.5608C36.1342 33.5182 35.6893 34.2008 34.9734 34.9208C34.2576 35.6408 33.5758 36.0844 32.6188 36.4583C31.8972 36.74 30.8119 37.0762 28.8157 37.1713C26.6537 37.273 26.0059 37.2943 20.5316 37.3062C15.0573 37.3181 14.4115 37.2959 12.2496 37.2024M28.9612 9.54344C28.962 10.03 29.1071 10.5054 29.3781 10.9095C29.6491 11.3136 30.0339 11.6283 30.4838 11.8137C30.9336 11.9991 31.4284 12.047 31.9054 11.9512C32.3825 11.8554 32.8204 11.6203 33.1639 11.2756C33.5073 10.9309 33.7408 10.4921 33.8348 10.0147C33.9289 9.53733 33.8792 9.04276 33.6921 8.59358C33.5051 8.1444 33.189 7.76079 32.7839 7.49125C32.3788 7.22172 31.9029 7.07837 31.4163 7.07934C30.764 7.08065 30.1389 7.34096 29.6785 7.80305C29.2181 8.26513 28.9601 8.89115 28.9612 9.54344ZM9.9741 20.5204C9.98558 26.3342 14.7071 31.0365 20.5197 31.0254C26.3323 31.0143 31.0379 26.2932 31.0268 20.4794C31.0157 14.6656 26.2929 9.96205 20.4795 9.97353C14.6661 9.98501 9.96303 14.7074 9.9741 20.5204ZM13.6666 20.513C13.6639 19.1615 14.0621 17.8395 14.8107 16.7143C15.5593 15.589 16.6248 14.711 17.8725 14.1914C19.1201 13.6717 20.4938 13.5336 21.8199 13.7947C23.146 14.0557 24.3649 14.7041 25.3224 15.6579C26.28 16.6117 26.9332 17.828 27.1995 19.1531C27.4658 20.4781 27.3332 21.8523 26.8185 23.102C26.3038 24.3517 25.43 25.4207 24.3077 26.1738C23.1855 26.9269 21.8651 27.3303 20.5136 27.3329C19.6161 27.3348 18.7272 27.1599 17.8974 26.8182C17.0675 26.4764 16.3132 25.9746 15.6774 25.3413C15.0415 24.708 14.5367 23.9556 14.1917 23.1271C13.8467 22.2987 13.6682 21.4104 13.6666 20.513Z" fill="white"/>
</g>
<defs>
<clipPath id="clip0_837_525">
<rect width="41" height="41" fill="white"/>
</clipPath>
</defs>
</svg>
